<svg width="16" height="16" viewBox="0 0 16 16" fill="none" xmlns="http://www.w3.org/2000/svg">
<path d="M3.77977 6.60956L5.82119 3.84753C7.14077 2.06216 7.80055 1.16948 8.41613 1.35812C9.0317 1.54676 9.0317 2.64164 9.0317 4.83139V5.03786C9.0317 5.82766 9.0317 6.22255 9.28406 6.47026L9.29741 6.48309C9.55522 6.72556 9.96622 6.72555 10.7882 6.72555C12.2675 6.72555 13.0071 6.72556 13.2571 7.17418C13.2612 7.18161 13.2652 7.1891 13.2692 7.19664C13.5051 7.65222 13.0769 8.23162 12.2204 9.39044L10.1789 12.1524C8.85935 13.9378 8.19955 14.8305 7.58397 14.6418C6.9684 14.4532 6.96842 13.3583 6.96845 11.1685L6.96845 10.9621C6.96846 10.1723 6.96847 9.77744 6.71611 9.52973L6.70276 9.5169C6.44495 9.27443 6.03394 9.27443 5.21192 9.27443C3.73267 9.27443 2.99305 9.27443 2.74308 8.8258C2.73894 8.81837 2.73492 8.81089 2.73101 8.80334C2.49504 8.34777 2.92328 7.76837 3.77977 6.60956Z" fill="#658D8E"/>
</svg>
