<svg width="223" height="40" viewBox="0 0 223 40" fill="none" xmlns="http://www.w3.org/2000/svg">
<path d="M170.594 39.6774C164.52 40.2991 159.857 38.1948 156.055 33.9144C152.157 29.4906 150.603 24.1342 151.129 18.0365C151.846 9.69098 157.131 2.68459 165.166 0.652021C174.205 -1.64359 183.698 2.1346 187.668 11.7953C192.307 23.1538 186.902 36.7839 174.587 39.6295C173.153 39.9643 171.598 39.6774 170.594 39.6774ZM170.259 3.11501C161.22 3.11501 154.262 9.78663 154.07 19.8538C153.879 29.7297 160.742 37.1905 169.877 37.2861C179.179 37.3818 186.065 30.3036 186.137 20.5234C186.233 9.57141 178.748 3.13893 170.259 3.11501Z" fill="white"/>
<path d="M142.688 27.7453C142.688 29.8257 142.76 31.9061 142.64 33.9865C142.616 34.6083 142.281 35.3974 141.851 35.7561C138.886 38.2908 135.562 39.8929 131.664 39.7973C129.177 39.7255 126.595 40.0603 124.203 39.4864C117.58 37.8604 113.156 33.3409 111.075 26.3345C108.612 17.9412 111.147 9.21308 117.556 4.09579C122.195 0.389337 127.503 -0.519343 133.123 0.365423C136.351 0.867587 139.268 2.2067 141.755 4.52622C142.114 4.861 142.664 5.53054 142.544 5.74576C142.21 6.41531 141.684 7.01313 141.134 7.46746C140.99 7.58703 140.368 7.25226 140.081 6.96531C134.247 1.36976 123.008 1.99148 117.436 8.4957C110.382 16.7455 112.295 31.667 123.39 36.0191C128.651 38.0756 133.792 37.8365 138.695 34.6561C139.484 34.1539 139.771 33.5083 139.747 32.5279C139.699 28.9171 139.699 25.2823 139.699 21.6715C139.699 20.2129 139.866 20.1411 141.253 20.0694C142.401 20.0216 142.736 20.5237 142.712 21.6955C142.664 23.728 142.688 25.7606 142.688 27.8171C142.712 27.7453 142.712 27.7453 142.688 27.7453Z" fill="white"/>
<path d="M96.3693 26.1666C99.3344 30.6383 102.276 35.0382 105.193 39.4381C103.782 40.3468 102.108 40.0359 101.271 38.7925C98.8562 35.1817 96.4649 31.5948 94.0976 27.9601C93.6193 27.2188 93.1171 26.9796 92.2802 27.0036C88.502 27.0514 84.7238 27.0753 80.9696 27.0036C79.8218 26.9796 79.5587 27.3862 79.5826 28.5579C79.6544 31.8817 79.5587 35.2056 79.6304 38.5294C79.6544 39.9403 78.8892 39.7729 78.0761 39.8207C77.2153 39.8446 76.6175 39.7729 76.6414 38.5294C76.7131 34.2012 76.7131 29.8731 76.6653 25.5449C76.6653 24.4688 77.0718 24.2058 77.9805 24.1819C82.6673 24.158 87.3781 24.1819 92.065 23.9667C95.0302 23.8232 97.7084 22.7471 99.6931 20.1406C100.937 18.5146 101.343 16.6255 101.51 14.6168C101.965 9.18868 99.3822 5.19527 94.4802 3.95181C93.4519 3.68878 92.3759 3.52139 91.2998 3.47356C86.9477 3.354 82.5956 3.30617 78.2435 3.23444C76.737 3.21052 76.187 2.42141 76.7131 0.867091C76.8088 0.556228 77.3348 0.245362 77.6696 0.245362C83.0499 0.293188 88.502 -0.113321 93.8106 0.580145C102.73 1.75186 106.15 9.49953 104.356 17.4146C103.471 21.3363 101.104 24.0145 97.6366 25.5449C97.2062 25.7362 96.8236 25.9275 96.3693 26.1666Z" fill="white"/>
<path d="M19.012 39.893C15.0904 40.3474 11.4796 39.3191 8.25137 36.9996C3.03843 33.2932 0.312394 27.9846 0.0254427 21.2412C-0.285421 13.8761 2.24931 7.94581 7.79703 3.59372C10.2122 1.70462 13.01 0.700298 15.9273 0.293784C20.7098 -0.351855 25.301 0.269869 29.4379 3.23503C29.9401 3.59372 30.4423 4.02415 30.8966 4.45457C32.2357 5.6502 32.1879 5.6263 30.9922 6.9654C30.4183 7.61104 29.9879 7.5393 29.4379 6.98931C23.9619 1.36985 11.6948 1.68072 6.36228 9.2371C4.23406 12.274 2.94278 15.55 3.03843 19.4717C3.11017 22.3173 3.25364 25.0672 4.42536 27.6976C7.19922 33.7953 11.8861 36.6887 17.9599 37.1909C22.2881 37.5496 26.2815 36.3779 29.5814 33.054C30.6336 32.0019 30.9205 33.3888 31.4705 33.7714C32.1161 34.2257 32.0444 34.7518 31.4944 35.3018C28.6488 38.0518 25.4445 39.8213 21.5468 39.893C20.7098 39.9169 19.8729 39.893 19.012 39.893Z" fill="white"/>
<path d="M52.0592 4.40642C51.4614 5.76944 50.9832 6.82159 50.5288 7.89766C46.4876 17.4866 42.4464 27.0755 38.4051 36.6645C38.2138 37.1188 38.0704 37.5971 37.8791 38.0514C37.0182 40.0601 36.2291 40.3949 33.9574 39.6058C34.2683 38.8166 34.5313 38.0275 34.8661 37.2862C39.9355 25.3778 45.0289 13.4932 50.0745 1.58474C50.5288 0.484756 51.1984 0.293457 52.1549 0.293457C53.1114 0.293457 53.6853 0.628235 54.1157 1.63256C58.4917 12.0585 62.8916 22.4604 67.3155 32.8863C68.1524 34.8471 68.9893 36.808 69.8263 38.7688C69.9219 39.0079 69.9937 39.2949 70.0654 39.5579C68.1046 40.2992 67.2437 39.9644 66.4546 38.1471C62.0308 27.7929 57.6309 17.4149 53.2309 7.06072C52.8962 6.22378 52.5375 5.48249 52.0592 4.40642Z" fill="white"/>
<path d="M210.217 21.4085C206.75 21.4085 203.282 21.3846 199.815 21.4324C198.787 21.4324 198.261 21.1933 198.285 19.902C198.285 18.6825 198.763 18.4434 199.743 18.4434C206.75 18.4912 213.756 18.4912 220.763 18.4673C221.791 18.4673 222.054 18.826 222.054 19.902C222.054 21.002 221.815 21.4563 220.715 21.4324C217.223 21.3607 213.732 21.4085 210.217 21.4085Z" fill="white"/>
<path d="M210.313 3.35432C206.774 3.35432 203.235 3.33041 199.696 3.37823C198.691 3.37823 198.261 3.11519 198.261 1.91956C198.261 0.747848 198.619 0.413074 199.648 0.413074C206.678 0.436987 213.732 0.460898 220.763 0.38916C221.91 0.38916 222.054 0.86741 222.078 1.91956C222.102 3.11519 221.695 3.40215 220.691 3.40215C217.223 3.33041 213.78 3.35432 210.313 3.35432Z" fill="white"/>
<path d="M221.958 37.1188V39.7014C221.504 39.7253 221.097 39.7731 220.691 39.7731C213.708 39.7731 206.75 39.7731 199.767 39.797C198.787 39.797 198.285 39.6057 198.309 38.3623C198.332 37.1906 198.811 36.9754 199.719 36.9993C206.702 37.0232 213.66 37.0232 220.643 37.0232C221.073 37.0232 221.504 37.0949 221.958 37.1188Z" fill="white"/>
</svg>
