<svg width="132" height="24" viewBox="0 0 132 24" fill="none" xmlns="http://www.w3.org/2000/svg">
<path d="M101.398 23.5836C97.7881 23.9531 95.0165 22.7024 92.7566 20.1582C90.4399 17.5287 89.516 14.345 89.8287 10.7206C90.2551 5.76016 93.3962 1.59568 98.1719 0.387551C103.544 -0.976922 109.187 1.26877 111.547 7.01092C114.304 13.7622 111.092 21.8638 103.772 23.5552C102.919 23.7541 101.995 23.5836 101.398 23.5836ZM101.199 1.85151C95.8267 1.85151 91.6906 5.81701 91.5769 11.8008C91.4632 17.6709 95.5424 22.1054 100.972 22.1623C106.501 22.2191 110.594 18.012 110.637 12.1988C110.694 5.68909 106.245 1.86573 101.199 1.85151Z" fill="white"/>
<path d="M84.8114 16.4914C84.8114 17.7279 84.854 18.9645 84.7829 20.201C84.7687 20.5706 84.5697 21.0396 84.3139 21.2528C82.5515 22.7594 80.5758 23.7117 78.2591 23.6549C76.7809 23.6122 75.2459 23.8112 73.8245 23.4701C69.8875 22.5036 67.258 19.8173 66.0215 15.6528C64.5575 10.6639 66.0641 5.47611 69.8732 2.43447C72.6306 0.231413 75.786 -0.308691 79.1261 0.217199C81.0449 0.515678 82.7789 1.31162 84.2571 2.69031C84.4703 2.88929 84.7972 3.28726 84.7261 3.41518C84.5271 3.81315 84.2144 4.16849 83.8875 4.43854C83.8022 4.5096 83.4327 4.31062 83.2621 4.14006C79.7941 0.814161 73.1139 1.1837 69.8022 5.04971C65.6093 9.95328 66.7463 18.8224 73.3413 21.4092C76.4682 22.6315 79.524 22.4894 82.4378 20.599C82.9068 20.3005 83.0774 19.9168 83.0631 19.334C83.0347 17.1878 83.0347 15.0274 83.0347 12.8812C83.0347 12.0142 83.1342 11.9716 83.9586 11.9289C84.6408 11.9005 84.8398 12.199 84.8256 12.8954C84.7972 14.1036 84.8114 15.3117 84.8114 16.534C84.8256 16.4914 84.8256 16.4914 84.8114 16.4914Z" fill="white"/>
<path d="M57.2803 15.5531C59.0428 18.211 60.791 20.8262 62.525 23.4414C61.6864 23.9816 60.6915 23.7968 60.1941 23.0577C58.7585 20.9115 57.3372 18.7795 55.9301 16.6191C55.6458 16.1785 55.3473 16.0363 54.8499 16.0506C52.6042 16.079 50.3585 16.0932 48.127 16.0506C47.4448 16.0363 47.2884 16.278 47.3026 16.9744C47.3453 18.9501 47.2884 20.9257 47.3311 22.9013C47.3453 23.7399 46.8904 23.6404 46.4072 23.6689C45.8955 23.6831 45.5402 23.6404 45.5544 22.9013C45.597 20.3287 45.597 17.7561 45.5686 15.1835C45.5686 14.5439 45.8102 14.3876 46.3503 14.3734C49.1361 14.3592 51.9362 14.3734 54.7219 14.2455C56.4844 14.1602 58.0763 13.5206 59.256 11.9713C59.9951 11.0048 60.2367 9.882 60.3362 8.68809C60.6062 5.46168 59.0712 3.08806 56.1575 2.34897C55.5463 2.19262 54.9067 2.09313 54.2671 2.0647C51.6803 1.99364 49.0935 1.96521 46.5067 1.92257C45.6112 1.90836 45.2843 1.43932 45.597 0.51546C45.6539 0.330688 45.9666 0.145915 46.1656 0.145915C49.3635 0.174341 52.6042 -0.0672805 55.7595 0.344904C61.0611 1.04135 63.0936 5.64644 62.0276 10.351C61.5017 12.682 60.0946 14.2739 58.0336 15.1835C57.7778 15.2972 57.5504 15.411 57.2803 15.5531Z" fill="white"/>
<path d="M11.3004 23.7117C8.96948 23.9818 6.82327 23.3706 4.90448 21.9919C1.80599 19.7889 0.185682 16.6335 0.0151227 12.6254C-0.16965 8.24771 1.33696 4.72282 4.63443 2.13601C6.06997 1.01316 7.73292 0.416206 9.46694 0.174581C12.3096 -0.209177 15.0385 0.160366 17.4974 1.92281C17.7959 2.13601 18.0944 2.39185 18.3644 2.64769C19.1604 3.35835 19.132 3.34414 18.4213 4.14008C18.0802 4.52384 17.8243 4.4812 17.4974 4.15429C14.2426 0.814178 6.95119 0.998953 3.78164 5.49034C2.51666 7.29543 1.74914 9.24264 1.80599 11.5736C1.84863 13.265 1.93391 14.8995 2.63036 16.463C4.2791 20.0873 7.0649 21.8072 10.6751 22.1056C13.2477 22.3188 15.6213 21.6224 17.5827 19.6467C18.2081 19.0214 18.3787 19.8457 18.7056 20.0731C19.0893 20.3432 19.0467 20.6559 18.7198 20.9828C17.0284 22.6173 15.1238 23.6691 12.8071 23.7117C12.3096 23.7259 11.8121 23.7117 11.3004 23.7117Z" fill="white"/>
<path d="M30.9431 2.619C30.5878 3.42915 30.3036 4.05453 30.0335 4.69413C27.6315 10.3936 25.2294 16.0932 22.8274 21.7927C22.7137 22.0627 22.6284 22.347 22.5147 22.6171C22.003 23.811 21.534 24.01 20.1837 23.5409C20.3685 23.0719 20.5248 22.6028 20.7238 22.1622C23.737 15.084 26.7645 8.02003 29.7634 0.941831C30.0335 0.288022 30.4315 0.174316 31 0.174316C31.5685 0.174316 31.9096 0.373303 32.1655 0.97026C34.7665 7.16724 37.3818 13.35 40.0112 19.547C40.5087 20.7125 41.0061 21.878 41.5036 23.0434C41.5605 23.1856 41.6031 23.3561 41.6457 23.5125C40.4802 23.9531 39.9686 23.7541 39.4995 22.6739C36.8701 16.5196 34.2548 10.351 31.6396 4.19667C31.4406 3.6992 31.2274 3.25859 30.9431 2.619Z" fill="white"/>
<path d="M124.95 12.7248C122.889 12.7248 120.828 12.7106 118.767 12.7391C118.156 12.7391 117.843 12.5969 117.857 11.8294C117.857 11.1045 118.141 10.9624 118.724 10.9624C122.889 10.9908 127.053 10.9908 131.218 10.9766C131.829 10.9766 131.985 11.1898 131.985 11.8294C131.985 12.4832 131.843 12.7533 131.189 12.7391C129.114 12.6964 127.039 12.7248 124.95 12.7248Z" fill="white"/>
<path d="M125.006 1.99389C122.903 1.99389 120.799 1.97968 118.696 2.0081C118.099 2.0081 117.843 1.85176 117.843 1.14109C117.843 0.444643 118.056 0.245659 118.667 0.245659C122.846 0.259873 127.039 0.274085 131.218 0.231445C131.9 0.231445 131.985 0.51571 131.999 1.14109C132.014 1.85176 131.772 2.02232 131.175 2.02232C129.114 1.97968 127.067 1.99389 125.006 1.99389Z" fill="white"/>
<path d="M131.928 22.0628V23.5978C131.658 23.612 131.417 23.6405 131.175 23.6405C127.025 23.6405 122.889 23.6405 118.738 23.6547C118.156 23.6547 117.857 23.541 117.871 22.8019C117.886 22.1054 118.17 21.9775 118.71 21.9917C122.86 22.006 126.996 22.006 131.147 22.006C131.402 22.006 131.658 22.0486 131.928 22.0628Z" fill="white"/>
</svg>
