<svg width="132" height="24" viewBox="0 0 132 24" fill="none" xmlns="http://www.w3.org/2000/svg">
<path d="M101.398 23.6959C97.7881 24.0655 95.0165 22.8147 92.7566 20.2705C90.4399 17.6411 89.516 14.4573 89.8287 10.8329C90.2551 5.87249 93.3962 1.708 98.1719 0.499875C103.544 -0.864598 109.187 1.38109 111.547 7.12325C114.304 13.8745 111.092 21.9761 103.772 23.6675C102.919 23.8665 101.995 23.6959 101.398 23.6959ZM101.199 1.96384C95.8267 1.96384 91.6906 5.92934 91.5769 11.9131C91.4632 17.7832 95.5424 22.2177 100.972 22.2746C106.501 22.3314 110.594 18.1243 110.637 12.3111C110.694 5.80142 106.245 1.97805 101.199 1.96384Z" fill="#2998FF"/>
<path d="M84.8114 16.6035C84.8114 17.84 84.854 19.0766 84.783 20.3132C84.7687 20.6827 84.5698 21.1517 84.3139 21.3649C82.5515 22.8715 80.5758 23.8238 78.2591 23.767C76.7809 23.7243 75.2459 23.9233 73.8245 23.5822C69.8875 22.6157 67.258 19.9294 66.0215 15.7649C64.5575 10.7761 66.0641 5.58822 69.8733 2.54658C72.6306 0.343527 75.786 -0.196577 79.1261 0.329313C81.0449 0.627792 82.7789 1.42374 84.2571 2.80242C84.4703 3.00141 84.7972 3.39938 84.7261 3.5273C84.5271 3.92527 84.2144 4.2806 83.8875 4.55065C83.8022 4.62172 83.4327 4.42274 83.2622 4.25218C79.7941 0.926275 73.1139 1.29581 69.8022 5.16182C65.6093 10.0654 66.7463 18.9345 73.3413 21.5213C76.4682 22.7436 79.5241 22.6015 82.4378 20.7111C82.9068 20.4126 83.0774 20.0289 83.0632 19.4461C83.0347 17.2999 83.0347 15.1395 83.0347 12.9933C83.0347 12.1263 83.1342 12.0837 83.9586 12.041C84.6408 12.0126 84.8398 12.3111 84.8256 13.0075C84.7972 14.2157 84.8114 15.4238 84.8114 16.6461C84.8256 16.6035 84.8256 16.6035 84.8114 16.6035Z" fill="#2998FF"/>
<path d="M57.2803 15.6654C59.0428 18.3233 60.791 20.9385 62.525 23.5538C61.6864 24.0939 60.6915 23.9091 60.194 23.17C58.7585 21.0238 57.3372 18.8918 55.9301 16.7314C55.6458 16.2908 55.3473 16.1487 54.8499 16.1629C52.6042 16.1913 50.3585 16.2055 48.127 16.1629C47.4448 16.1487 47.2884 16.3903 47.3026 17.0867C47.3453 19.0624 47.2884 21.038 47.3311 23.0137C47.3453 23.8523 46.8904 23.7528 46.4072 23.7812C45.8955 23.7954 45.5402 23.7528 45.5544 23.0137C45.597 20.4411 45.597 17.8685 45.5686 15.2959C45.5686 14.6563 45.8102 14.4999 46.3503 14.4857C49.1361 14.4715 51.9361 14.4857 54.7219 14.3578C56.4844 14.2725 58.0763 13.6329 59.256 12.0837C59.9951 11.1172 60.2367 9.99432 60.3362 8.80041C60.6062 5.574 59.0712 3.20038 56.1575 2.46129C55.5463 2.30495 54.9067 2.20545 54.2671 2.17703C51.6803 2.10596 49.0935 2.07754 46.5067 2.0349C45.6112 2.02068 45.2843 1.55165 45.597 0.627784C45.6539 0.443012 45.9666 0.258239 46.1656 0.258239C49.3635 0.286665 52.6042 0.0450433 55.7595 0.457228C61.0611 1.15368 63.0936 5.75877 62.0276 10.4634C61.5017 12.7943 60.0946 14.3862 58.0336 15.2959C57.7778 15.4096 57.5504 15.5233 57.2803 15.6654Z" fill="#2998FF"/>
<path d="M11.3004 23.8238C8.96948 24.0939 6.82327 23.4827 4.90448 22.104C1.80599 19.901 0.185682 16.7456 0.0151227 12.7375C-0.16965 8.3598 1.33696 4.83491 4.63443 2.2481C6.06997 1.12525 7.73292 0.528298 9.46694 0.286672C12.3096 -0.0970857 15.0385 0.272457 17.4974 2.0349C17.7959 2.2481 18.0944 2.50394 18.3644 2.75978C19.1604 3.47044 19.132 3.45623 18.4213 4.25217C18.0802 4.63593 17.8243 4.59329 17.4974 4.26638C14.2426 0.926269 6.95119 1.11104 3.78164 5.60243C2.51666 7.40752 1.74914 9.35473 1.80599 11.6857C1.84863 13.3771 1.93391 15.0116 2.63036 16.5751C4.2791 20.1994 7.0649 21.9192 10.6751 22.2177C13.2477 22.4309 15.6213 21.7345 17.5827 19.7588C18.2081 19.1334 18.3787 19.9578 18.7056 20.1852C19.0893 20.4553 19.0467 20.768 18.7198 21.0949C17.0284 22.7294 15.1238 23.7812 12.8071 23.8238C12.3096 23.838 11.8121 23.8238 11.3004 23.8238Z" fill="#2998FF"/>
<path d="M30.9432 2.73136C30.5878 3.54151 30.3036 4.16689 30.0335 4.80649C27.6315 10.506 25.2294 16.2055 22.8274 21.905C22.7137 22.1751 22.6284 22.4594 22.5147 22.7294C22.003 23.9233 21.534 24.1223 20.1837 23.6533C20.3685 23.1842 20.5248 22.7152 20.7238 22.2746C23.737 15.1964 26.7645 8.13239 29.7635 1.05419C30.0335 0.40038 30.4315 0.286674 31 0.286674C31.5686 0.286674 31.9097 0.485661 32.1655 1.08262C34.7665 7.2796 37.3818 13.4624 40.0112 19.6593C40.5087 20.8248 41.0062 21.9903 41.5036 23.1558C41.5605 23.2979 41.6031 23.4685 41.6457 23.6248C40.4803 24.0655 39.9686 23.8665 39.4995 22.7863C36.8701 16.6319 34.2549 10.4634 31.6396 4.30902C31.4406 3.81156 31.2274 3.37095 30.9432 2.73136Z" fill="#2998FF"/>
<path d="M124.95 12.837C122.889 12.837 120.828 12.8228 118.767 12.8512C118.156 12.8512 117.843 12.7091 117.857 11.9415C117.857 11.2167 118.142 11.0745 118.724 11.0745C122.889 11.103 127.053 11.103 131.218 11.0887C131.829 11.0887 131.985 11.3019 131.985 11.9415C131.985 12.5953 131.843 12.8654 131.189 12.8512C129.114 12.8085 127.039 12.837 124.95 12.837Z" fill="#2998FF"/>
<path d="M125.006 2.10597C122.903 2.10597 120.799 2.09176 118.696 2.12018C118.099 2.12018 117.843 1.96384 117.843 1.25317C117.843 0.556723 118.056 0.357739 118.667 0.357739C122.846 0.371952 127.039 0.386165 131.218 0.343525C131.9 0.343525 131.985 0.627789 131.999 1.25317C132.014 1.96384 131.772 2.1344 131.175 2.1344C129.114 2.09176 127.067 2.10597 125.006 2.10597Z" fill="#2998FF"/>
<path d="M131.928 22.1751V23.7101C131.658 23.7243 131.417 23.7528 131.175 23.7528C127.025 23.7528 122.889 23.7528 118.738 23.767C118.156 23.767 117.857 23.6533 117.871 22.9142C117.886 22.2177 118.17 22.0898 118.71 22.104C122.86 22.1182 126.996 22.1182 131.147 22.1182C131.402 22.1182 131.658 22.1609 131.928 22.1751Z" fill="#2998FF"/>
</svg>
