<svg width="32" height="32" viewBox="0 0 32 32" fill="none" xmlns="http://www.w3.org/2000/svg">
<rect width="32" height="32" fill="#111111"/>
<g clip-path="url(#clip0_0_1)">
<rect width="1440" height="7600" transform="translate(-1039 -3040)" fill="white"/>
<rect x="-11" y="-8" width="227" height="48" rx="24" fill="#DEEFFF"/>
<circle cx="16" cy="16" r="15" fill="#FFB9F8" stroke="white" stroke-width="2"/>
<path fill-rule="evenodd" clip-rule="evenodd" d="M15.6667 9.33325C12.9053 9.33325 10.6667 11.6239 10.6667 14.4495C10.6667 15.9644 11.3107 17.326 12.3324 18.2622C12.673 18.5742 12.9252 18.8054 13.104 18.9731C13.1934 19.057 13.2618 19.1225 13.3122 19.1727C13.3374 19.1978 13.3566 19.2176 13.3709 19.233C13.378 19.2406 13.3833 19.2465 13.3872 19.251C13.391 19.2553 13.3928 19.2575 13.3928 19.2575C13.5505 19.4567 13.5846 19.508 13.6049 19.5546C13.6253 19.6011 13.6399 19.6614 13.6797 19.9144C13.6954 20.0143 13.697 20.1854 13.697 20.6511L13.697 20.6711C13.697 20.9438 13.697 21.1791 13.7141 21.3721C13.7322 21.5762 13.7722 21.7784 13.8797 21.9689C13.9994 22.181 14.1715 22.3572 14.3788 22.4796C14.565 22.5896 14.7625 22.6306 14.9621 22.6491C15.1507 22.6666 15.3806 22.6666 15.6471 22.6666H15.6862C15.9528 22.6666 16.1827 22.6666 16.3713 22.6491C16.5708 22.6306 16.7684 22.5896 16.9546 22.4796C17.1619 22.3572 17.334 22.181 17.4537 21.9689C17.5612 21.7784 17.6012 21.5762 17.6193 21.3721C17.6364 21.1791 17.6364 20.9438 17.6364 20.6711V20.6511C17.6364 20.1854 17.638 20.0143 17.6537 19.9144C17.6935 19.6614 17.7081 19.6011 17.7284 19.5546C17.7488 19.508 17.7829 19.4567 17.9406 19.2575C17.9406 19.2575 17.9422 19.2555 17.9462 19.251C17.95 19.2465 17.9554 19.2406 17.9625 19.233C17.9768 19.2176 17.996 19.1978 18.0212 19.1727C18.0716 19.1225 18.14 19.057 18.2293 18.9731C18.4081 18.8054 18.6604 18.5742 19.001 18.2622C20.0227 17.326 20.6667 15.9644 20.6667 14.4495C20.6667 11.6239 18.4281 9.33325 15.6667 9.33325ZM16.7234 21.1162H14.61C14.612 21.1808 14.6149 21.2373 14.6194 21.2881C14.6318 21.4278 14.6527 21.4785 14.667 21.5038C14.7069 21.5745 14.7643 21.6332 14.8334 21.674C14.8581 21.6887 14.9077 21.71 15.0441 21.7227C15.1868 21.7359 15.3751 21.7364 15.6667 21.7364C15.9583 21.7364 16.1466 21.7359 16.2893 21.7227C16.4257 21.71 16.4753 21.6887 16.5 21.674C16.5691 21.6332 16.6265 21.5745 16.6664 21.5038C16.6807 21.4785 16.7016 21.4278 16.7139 21.2881C16.7184 21.2373 16.7214 21.1808 16.7234 21.1162ZM16.407 13.4509C16.6113 13.6002 16.6586 13.8907 16.5127 14.0997L15.7274 15.2247H16.6623C16.8325 15.2247 16.9885 15.3221 17.0664 15.477C17.1444 15.6319 17.1311 15.8184 17.0322 15.9602L15.7335 17.8206C15.5875 18.0297 15.3037 18.0781 15.0994 17.9288C14.8951 17.7795 14.8478 17.489 14.9937 17.28L15.779 16.155H14.8441C14.6738 16.155 14.5178 16.0576 14.4399 15.9027C14.362 15.7478 14.3752 15.5613 14.4742 15.4195L15.7729 13.559C15.9188 13.35 16.2027 13.3016 16.407 13.4509Z" fill="#1C274C"/>
</g>
<defs>
<clipPath id="clip0_0_1">
<rect width="1440" height="7600" fill="white" transform="translate(-1039 -3040)"/>
</clipPath>
</defs>
</svg>
