<svg width="16" height="16" viewBox="0 0 16 16" fill="none" xmlns="http://www.w3.org/2000/svg">
<path d="M8.55492 14.5039C10.6389 14.087 13.3333 12.5911 13.3333 8.72255C13.3333 5.20219 10.7511 2.85797 8.89435 1.78083C8.48234 1.54182 8 1.85615 8 2.33173V3.54817C8 4.50741 7.59585 6.25832 6.47288 6.98659C5.89955 7.35841 5.28035 6.80191 5.21067 6.12311L5.15345 5.56572C5.08693 4.91774 4.42561 4.52437 3.90664 4.91944C2.97431 5.62919 2 6.87203 2 8.72255C2 13.4534 5.52593 14.6361 7.28889 14.6361C7.39143 14.6361 7.49919 14.6331 7.61138 14.6266C6.74087 14.5524 5.33333 14.0134 5.33333 12.2705C5.33333 10.9071 6.33005 9.98479 7.08735 9.53646C7.29102 9.41588 7.52941 9.57244 7.52941 9.80877V10.2008C7.52941 10.5007 7.64567 10.9697 7.92242 11.2907C8.23559 11.6539 8.69528 11.2734 8.73234 10.7956C8.74404 10.6449 8.89593 10.5489 9.02672 10.6252C9.45426 10.8745 10 11.4072 10 12.2705C10 13.633 9.24735 14.2597 8.55492 14.5039Z" fill="#878B92"/>
</svg>
