<svg width="32" height="32" viewBox="0 0 32 32" fill="none" xmlns="http://www.w3.org/2000/svg">
<rect width="32" height="32" fill="#111111"/>
<g clip-path="url(#clip0_0_1)">
<rect width="1440" height="7600" transform="translate(-640 -1769)" fill="white"/>
<circle cx="16" cy="16" r="16" fill="#DEEFFF"/>
<path d="M11.7797 14.5958L13.8211 11.8395C15.1407 10.0579 15.8005 9.16707 16.4161 9.35532C17.0316 9.54357 17.0316 10.6362 17.0316 12.8214V13.0274C17.0316 13.8155 17.0316 14.2096 17.284 14.4568L17.2974 14.4696C17.5552 14.7116 17.9662 14.7116 18.7882 14.7116C20.2674 14.7116 21.0071 14.7116 21.257 15.1593C21.2612 15.1667 21.2652 15.1741 21.2691 15.1817C21.5051 15.6363 21.0768 16.2145 20.2203 17.3709L18.1789 20.1271C16.8593 21.9088 16.1995 22.7996 15.5839 22.6113C14.9683 22.4231 14.9684 21.3305 14.9684 19.1453L14.9684 18.9393C14.9684 18.1512 14.9684 17.7571 14.716 17.5099L14.7027 17.4971C14.4449 17.2551 14.0339 17.2551 13.2119 17.2551C11.7326 17.2551 10.993 17.2551 10.743 16.8074C10.7389 16.8 10.7349 16.7925 10.7309 16.785C10.495 16.3304 10.9232 15.7522 11.7797 14.5958Z" fill="#F71E6C"/>
</g>
<defs>
<clipPath id="clip0_0_1">
<rect width="1440" height="7600" fill="white" transform="translate(-640 -1769)"/>
</clipPath>
</defs>
</svg>
