<svg width="72" height="72" viewBox="0 0 72 72" fill="none" xmlns="http://www.w3.org/2000/svg">
<rect width="72" height="72" fill="#111111"/>
<g clip-path="url(#clip0_0_1)">
<rect width="1440" height="3301" transform="translate(-684 -2192)" fill="white"/>
<rect x="-604" y="-80" width="1280" height="553" fill="#2998FF"/>
<circle cx="36" cy="36" r="34" fill="#DEEFFF" stroke="white" stroke-width="4"/>
<path d="M43.2022 33.64C45.6022 33.64 47.5222 35.56 47.5222 37.96C47.5222 40.36 45.6022 42.28 43.2022 42.28C40.8022 42.28 38.8822 40.36 38.8822 37.96C38.8822 33.64 41.6022 29.72 46.0822 26.12L46.4822 26.52C43.2822 29.24 41.2022 31.72 40.2422 34.76C41.0422 34.04 42.0822 33.64 43.2022 33.64ZM29.7622 33.64C32.1622 33.64 34.0822 35.56 34.0822 37.96C34.0822 40.36 32.1622 42.28 29.7622 42.28C27.3622 42.28 25.4422 40.36 25.4422 37.96C25.4422 33.64 28.1622 29.72 32.6422 26.12L33.0422 26.52C29.8422 29.24 27.7622 31.72 26.8822 34.76C27.6022 34.04 28.6422 33.64 29.7622 33.64Z" fill="#091E31"/>
</g>
<defs>
<clipPath id="clip0_0_1">
<rect width="1440" height="3301" fill="white" transform="translate(-684 -2192)"/>
</clipPath>
</defs>
</svg>
