<svg width="32" height="32" viewBox="0 0 32 32" fill="none" xmlns="http://www.w3.org/2000/svg">
<rect width="32" height="32" fill="#111111"/>
<g clip-path="url(#clip0_0_1)">
<rect width="1440" height="7600" transform="translate(-816 -3040)" fill="white"/>
<rect x="-11" y="-8" width="215" height="48" rx="24" fill="#DEEFFF"/>
<circle cx="16" cy="16" r="15" fill="#97FFF9" stroke="white" stroke-width="2"/>
<path fill-rule="evenodd" clip-rule="evenodd" d="M14.1667 9.83325C14.1667 9.55711 14.3905 9.33325 14.6667 9.33325H17.3333C17.6095 9.33325 17.8333 9.55711 17.8333 9.83325C17.8333 10.1094 17.6095 10.3333 17.3333 10.3333H14.6667C14.3905 10.3333 14.1667 10.1094 14.1667 9.83325Z" fill="#091E31"/>
<path fill-rule="evenodd" clip-rule="evenodd" d="M22 17.1666C22 20.4803 19.3137 23.1666 16 23.1666C12.6863 23.1666 10 20.4803 10 17.1666C10 13.8529 12.6863 11.1666 16 11.1666C19.3137 11.1666 22 13.8529 22 17.1666ZM16.6841 15.3499C16.5259 15.2388 16.3468 15.1239 16.1613 15.0111C15.4464 14.5764 15.0889 14.359 14.7683 14.5997C14.4477 14.8403 14.4185 15.3442 14.3603 16.3518C14.3438 16.6368 14.3333 16.9161 14.3333 17.1666C14.3333 17.417 14.3438 17.6964 14.3603 17.9814C14.4185 18.989 14.4477 19.4928 14.7683 19.7335C15.0889 19.9742 15.4464 19.7568 16.1613 19.3221C16.3468 19.2093 16.5259 19.0944 16.6841 18.9833C16.8644 18.8567 17.0606 18.7048 17.2584 18.5434C17.975 17.9588 18.3333 17.6665 18.3333 17.1666C18.3333 16.6667 17.975 16.3744 17.2584 15.7898C17.0606 15.6284 16.8644 15.4765 16.6841 15.3499Z" fill="#091E31"/>
</g>
<defs>
<clipPath id="clip0_0_1">
<rect width="1440" height="7600" fill="white" transform="translate(-816 -3040)"/>
</clipPath>
</defs>
</svg>
