<svg width="24" height="24" viewBox="0 0 24 24" fill="none" xmlns="http://www.w3.org/2000/svg">
<g clip-path="url(#clip0_100_891)">
<path d="M23.5078 0.00307121C18.8228 -0.0809288 13.4798 2.36807 10.0978 6.16707C6.86576 6.22807 3.71877 7.55307 1.40177 9.87007C1.26677 10.0031 1.21877 10.2021 1.27777 10.3821C1.33777 10.5631 1.49377 10.6941 1.68177 10.7211L5.53577 11.2731L5.05977 11.8061C4.88277 12.0041 4.89177 12.3051 5.07977 12.4931L11.5068 18.9201C11.6038 19.0171 11.7318 19.0661 11.8608 19.0661C11.9798 19.0661 12.0988 19.0241 12.1938 18.9391L12.7268 18.4631L13.2788 22.3171C13.3058 22.5051 13.4538 22.6431 13.6328 22.7031C13.6788 22.7181 13.7268 22.7251 13.7758 22.7251C13.9178 22.7251 14.0628 22.6631 14.1628 22.5641C16.4478 20.2791 17.7728 17.1321 17.8338 13.9001C21.6368 10.5111 24.1058 5.17007 23.9968 0.491071C23.9898 0.225071 23.7748 0.0100712 23.5078 0.00307121ZM18.8998 8.63507C18.4128 9.12207 17.7728 9.36607 17.1318 9.36607C16.4908 9.36607 15.8508 9.12207 15.3638 8.63507C14.3898 7.66007 14.3898 6.07407 15.3638 5.09907C16.3388 4.12407 17.9248 4.12407 18.8998 5.09907C19.8748 6.07407 19.8748 7.66107 18.8998 8.63507Z" fill="#878B92"/>
<path d="M2.72406 16.9051C1.65406 17.9751 0.185057 22.8091 0.0210574 23.3561C-0.0319426 23.5321 0.0170574 23.7231 0.146057 23.8531C0.242057 23.9491 0.369057 24.0001 0.500057 24.0001C0.548057 24.0001 0.596057 23.9931 0.644057 23.9791C1.19106 23.8151 6.02506 22.3461 7.09506 21.2761C8.30006 20.0711 8.30006 18.1101 7.09506 16.9051C5.88906 15.7001 3.92906 15.7011 2.72406 16.9051Z" fill="#878B92"/>
</g>
<defs>
<clipPath id="clip0_100_891">
<rect width="24" height="24" fill="white"/>
</clipPath>
</defs>
</svg>
