<svg width="32" height="32" viewBox="0 0 32 32" fill="none" xmlns="http://www.w3.org/2000/svg">
<rect width="32" height="32" fill="#111111"/>
<g clip-path="url(#clip0_0_1)">
<rect width="1440" height="7600" transform="translate(-197 -3040)" fill="white"/>
<rect x="-11" y="-8" width="150" height="48" rx="24" fill="#DEEFFF"/>
<circle cx="16" cy="16" r="15" fill="#FFDACA" stroke="white" stroke-width="2"/>
<path d="M11.3333 15.9999C11.3333 14.1273 11.3333 13.191 11.7828 12.5184C11.9773 12.2272 12.2273 11.9772 12.5185 11.7827C13.1911 11.3333 14.1274 11.3333 16 11.3333C17.8726 11.3333 18.8089 11.3333 19.4815 11.7827C19.7727 11.9772 20.0227 12.2272 20.2173 12.5184C20.6667 13.191 20.6667 14.1273 20.6667 15.9999C20.6667 17.8725 20.6667 18.8088 20.2173 19.4814C20.0227 19.7726 19.7727 20.0226 19.4815 20.2172C18.8089 20.6666 17.8726 20.6666 16 20.6666C14.1274 20.6666 13.1911 20.6666 12.5185 20.2172C12.2273 20.0226 11.9773 19.7726 11.7828 19.4814C11.3333 18.8088 11.3333 17.8725 11.3333 15.9999Z" fill="#091E31"/>
<path d="M16.3333 22.6666H15.6667C14.7304 22.6666 14.2622 22.6666 13.9259 22.4419C13.7803 22.3446 13.6553 22.2196 13.558 22.074C13.4648 21.9345 13.4103 21.7724 13.3784 21.5635C13.4868 21.5803 13.5967 21.5939 13.708 21.6053C14.3111 21.6666 15.0561 21.6666 15.9489 21.6666H16.0511C16.9439 21.6666 17.6889 21.6666 18.292 21.6053C18.4033 21.5939 18.5132 21.5803 18.6216 21.5635C18.5897 21.7724 18.5352 21.9345 18.442 22.074C18.3447 22.2196 18.2197 22.3446 18.0741 22.4419C17.7378 22.6666 17.2696 22.6666 16.3333 22.6666Z" fill="#091E31"/>
<path d="M16.3333 9.33325H15.6667C14.7304 9.33325 14.2622 9.33325 13.9259 9.55796C13.7803 9.65524 13.6553 9.78024 13.558 9.92582C13.4648 10.0653 13.4103 10.2275 13.3784 10.4363C13.4868 10.4196 13.5967 10.4059 13.708 10.3946C14.3111 10.3332 15.0561 10.3332 15.9489 10.3333H16.0511C16.9439 10.3332 17.6889 10.3332 18.292 10.3946C18.4033 10.4059 18.5132 10.4196 18.6216 10.4363C18.5897 10.2275 18.5352 10.0653 18.442 9.92582C18.3447 9.78024 18.2197 9.65524 18.0741 9.55796C17.7378 9.33325 17.2696 9.33325 16.3333 9.33325Z" fill="#091E31"/>
<path fill-rule="evenodd" clip-rule="evenodd" d="M16 13.4999C16.2761 13.4999 16.5 13.7238 16.5 13.9999V15.8383L17.6799 16.9728C17.8789 17.1642 17.8851 17.4807 17.6938 17.6798C17.5024 17.8788 17.1858 17.8851 16.9868 17.6937L15.6534 16.4116C15.5554 16.3173 15.5 16.1872 15.5 16.0512V13.9999C15.5 13.7238 15.7239 13.4999 16 13.4999Z" fill="white"/>
</g>
<defs>
<clipPath id="clip0_0_1">
<rect width="1440" height="7600" fill="white" transform="translate(-197 -3040)"/>
</clipPath>
</defs>
</svg>
